<svg width="169" height="81" viewBox="0 0 169 81" fill="none" xmlns="http://www.w3.org/2000/svg">
<path d="M22.0077 51.2768C23.3081 49.5382 24.9763 48.2493 26.522 46.8346C27.5505 45.8932 28.3635 44.8205 28.556 43.3812C28.9241 40.6283 27.005 38.7742 25.1072 38.0373C23.4002 37.3745 21.709 36.6737 20.1249 35.7447C18.7025 34.9105 17.3923 33.9407 16.4718 32.5362C14.5685 29.6327 14.6219 26.5962 15.9977 23.5425C18.3973 18.2164 24.8405 17.5577 28.9621 20.7052C31.3224 22.5077 32.6371 24.9606 32.9951 27.8445C33.5102 31.9937 33.3225 36.1743 33.2319 40.3446C33.1785 42.8048 33.0136 45.2684 33.4888 47.7091C33.6087 48.3246 33.9099 48.848 34.3584 49.2875C35.3842 50.2927 36.8584 50.0693 37.5521 48.8024C37.9127 48.144 38.0095 47.4182 38.0744 46.6892C38.3018 44.1329 38.2154 41.5696 38.2351 39.0086C38.2489 37.2052 38.2746 35.4049 38.6591 33.6249C39.4826 29.8131 42.576 28.5311 45.7953 28.9302C46.3777 29.0025 46.9463 29.1294 47.5068 29.3101C50.1532 30.1635 51.3395 32.1481 51.7739 34.7424C51.8915 35.4444 51.9474 36.144 51.9352 36.8528C51.8796 40.0751 52.023 43.2945 52.079 46.5151C52.0975 47.5792 52.5956 48.4445 53.3386 49.1516C53.9653 49.7481 54.7328 49.9439 55.5718 49.5997C56.3438 49.283 56.7199 48.6842 56.8446 47.8673C57.1377 45.9471 56.9641 44.0179 56.9909 42.0932C57.0202 39.9969 56.8919 37.8918 57.3044 35.8184C57.8157 33.2482 59.5444 31.8994 62.266 31.9004C64.7963 31.9014 66.7939 33.4815 67.2933 35.8604C67.3993 36.3651 67.4494 36.868 67.4484 37.3831C67.4373 43.3397 67.4542 49.2964 67.4098 55.2527C67.3999 56.5868 67.3852 57.94 67.0365 59.2501C66.2375 62.2512 64.2753 64.1617 61.347 65.0045C58.5635 65.8057 55.7328 65.7532 52.9989 64.7562C49.6921 63.5504 47.9809 60.9545 47.1816 57.6604C46.8937 56.4743 46.7539 55.2695 46.7655 54.04C46.786 51.8688 46.7211 49.6953 46.3665 47.5495C46.1429 46.1966 45.6805 45.7952 44.6879 45.8484C43.7662 45.8978 43.0788 46.675 43.0182 47.8362C42.9583 48.9812 42.9528 50.1297 42.9488 51.2768C42.9371 54.5528 42.2623 57.6667 40.674 60.5511C38.9639 63.6566 36.263 65.2377 32.7812 65.4617C30.4834 65.6095 28.1677 65.5573 26.0632 64.4426C22.93 62.7831 21.11 60.198 20.7866 56.6227C20.6152 54.7275 20.8708 52.9284 22.0077 51.2768Z" fill="white"/>
<path d="M151.352 63.3118C150.302 63.311 149.325 63.2827 148.35 63.3199C147.802 63.3409 147.453 63.1386 147.116 62.7157C144.55 59.4871 141.962 56.2748 139.376 53.0619C139.165 52.8001 139 52.4757 138.657 52.3528C137.7 52.0103 137.19 52.373 137.19 53.3876C137.189 56.3902 137.173 59.3929 137.202 62.3951C137.209 63.0782 137.03 63.3398 136.304 63.3258C134.107 63.2834 131.91 63.2945 129.713 63.3192C129.114 63.326 128.901 63.1278 128.902 62.5184C128.915 52.1925 128.915 41.8667 128.9 31.5409C128.9 30.9573 129.12 30.763 129.669 30.7684C133.988 30.8111 138.317 30.6841 142.625 30.9252C146.528 31.1436 149.958 32.6161 152.114 36.1386C154.817 40.5552 154.096 47.4004 148.498 50.4986C147.651 50.9675 147.664 50.9764 148.254 51.7059C151.169 55.3113 154.082 58.9191 156.993 62.5286C157.14 62.7111 157.347 62.8738 157.285 63.3117C155.345 63.3117 153.385 63.3117 151.352 63.3118ZM140.859 37.792C139.858 37.7882 138.857 37.7869 137.856 37.7795C137.421 37.7763 137.182 37.9231 137.186 38.4185C137.201 40.5423 137.197 42.6663 137.187 44.7902C137.185 45.2196 137.358 45.4304 137.789 45.4233C139.153 45.4009 140.521 45.562 141.88 45.3453C143.609 45.0694 145.045 43.6676 145.163 42.1591C145.324 40.0842 144.432 38.7148 142.505 38.0574C142.014 37.89 141.513 37.8137 140.859 37.792Z" fill="white"/>
<path d="M92.7897 32.7644C95.1435 34.6307 96.3386 37.0528 96.5966 39.966C96.6734 40.8331 96.61 40.9074 95.7729 40.9082C93.6736 40.9102 91.5742 40.8963 89.475 40.9151C88.9488 40.9198 88.6549 40.8485 88.5399 40.2151C87.9192 36.7972 84.8938 36.4279 82.4195 37.2816C81.3952 37.635 80.8838 38.4763 80.8115 39.5289C80.743 40.5257 81.1537 41.3387 82.0141 41.8815C83.3684 42.7359 84.8739 43.2425 86.3843 43.7268C88.313 44.3451 90.2627 44.9144 92.0672 45.8508C95.4854 47.6245 97.2185 50.4676 97.1702 54.3137C97.1236 58.0218 95.247 60.6259 92.0108 62.2838C89.3323 63.656 86.4559 63.9843 83.4825 63.8004C80.9295 63.6425 78.5199 63.0696 76.3699 61.6283C73.6613 59.8126 72.1736 57.268 71.9019 54.024C71.7775 52.5384 71.8008 52.5369 73.3112 52.5357C75.2152 52.5342 77.1194 52.5474 79.0231 52.5203C79.5875 52.5123 79.8667 52.6111 79.987 53.2671C80.6368 56.8109 84.649 58.4544 87.7093 56.4704C89.4344 55.352 89.3712 52.9397 87.5756 51.8539C86.2503 51.0525 84.7867 50.5744 83.3229 50.1037C81.3016 49.4539 79.2653 48.8271 77.4018 47.7919C74.5402 46.2023 72.8549 43.8269 72.6355 40.4802C72.389 36.7193 73.8046 33.7414 77.1287 32.0291C82.4005 29.3134 87.6784 29.4582 92.7897 32.7644Z" fill="white"/>
<path d="M122.965 37.4593C122.79 37.9913 122.387 37.8289 122.078 37.8299C118.441 37.8425 114.803 37.8586 111.167 37.8243C110.413 37.8172 110.188 38.0647 110.219 38.792C110.268 39.9861 110.262 41.1849 110.219 42.3795C110.196 43.0266 110.429 43.2261 111.061 43.2222C114.503 43.2008 117.945 43.2128 121.387 43.2133C122.535 43.2134 122.536 43.2134 122.537 44.334C122.538 45.994 122.513 47.6545 122.55 49.3136C122.564 49.9634 122.332 50.1514 121.7 50.147C118.209 50.123 114.719 50.1341 111.228 50.136C110.238 50.1365 110.235 50.1409 110.233 51.0963C110.231 52.5366 110.257 53.9774 110.22 55.4168C110.205 56.0276 110.416 56.215 111.018 56.2117C114.826 56.1912 118.634 56.2013 122.442 56.2029C123.419 56.2034 123.422 56.2062 123.423 57.1627C123.425 58.9447 123.405 60.727 123.432 62.5086C123.441 63.0947 123.277 63.3228 122.651 63.321C116.036 63.3016 109.421 63.2992 102.805 63.3192C102.11 63.3213 101.943 63.0631 101.943 62.4149C101.958 52.1622 101.958 41.9096 101.94 31.657C101.939 30.9862 102.123 30.8035 102.815 30.8064C109.283 30.8339 115.752 30.8242 122.22 30.8003C122.792 30.7982 122.999 30.9413 122.99 31.5311C122.96 33.4835 122.976 35.4366 122.965 37.4593Z" fill="white"/>
<path d="M69.0714 25.0658C67.8863 28.3954 62.8809 30.8976 58.4077 28.102C55.7364 26.4325 54.4638 23.2837 55.3028 20.1802C56.0932 17.2561 58.8869 15.1468 61.9404 15.0138C64.051 14.9219 65.976 15.2654 67.5738 16.7335C69.9462 18.9134 70.515 22.0659 69.0714 25.0658Z" fill="white"/>
</svg>
